<svg width="98" height="101" viewBox="0 0 98 101" fill="none" xmlns="http://www.w3.org/2000/svg">
<path d="M59.1321 17.2832H38.8763L28.7485 29.722H16.595C14.4461 29.722 12.3853 30.5956 10.8658 32.1508C9.34631 33.7059 8.49268 35.8151 8.49268 38.0145V75.3307C8.49268 77.53 9.34631 79.6392 10.8658 81.1944C12.3853 82.7495 14.4461 83.6232 16.595 83.6232H81.4135C83.5623 83.6232 85.6232 82.7495 87.1427 81.1944C88.6622 79.6392 89.5158 77.53 89.5158 75.3307V38.0145C89.5158 35.8151 88.6622 33.7059 87.1427 32.1508C85.6232 30.5956 83.5623 29.722 81.4135 29.722H69.26L59.1321 17.2832Z" stroke="#D9D9D9" stroke-width="3.21" stroke-linecap="round" stroke-linejoin="round"/>
<path d="M49.0043 67.0396C55.7165 67.0396 61.1578 61.4706 61.1578 54.6009C61.1578 47.7311 55.7165 42.1621 49.0043 42.1621C42.2921 42.1621 36.8508 47.7311 36.8508 54.6009C36.8508 61.4706 42.2921 67.0396 49.0043 67.0396Z" stroke="#D9D9D9" stroke-width="2.14" stroke-linecap="round" stroke-linejoin="round"/>
</svg>
