<svg width="83" height="83" viewBox="0 0 83 83" fill="none" xmlns="http://www.w3.org/2000/svg">
<path d="M51.7294 7.76758H31.3765C29.5031 7.76758 27.9844 9.28629 27.9844 11.1597V17.944C27.9844 19.8174 29.5031 21.3361 31.3765 21.3361H51.7294C53.6028 21.3361 55.1215 19.8174 55.1215 17.944V11.1597C55.1215 9.28629 53.6028 7.76758 51.7294 7.76758Z" stroke="white" stroke-width="4.84592" stroke-linecap="round" stroke-linejoin="round"/>
<path d="M55.1216 14.6875H61.9059C63.7052 14.6875 65.4308 15.4023 66.7031 16.6746C67.9754 17.9469 68.6902 19.6725 68.6902 21.4718V68.9618C68.6902 70.7611 67.9754 72.4867 66.7031 73.759C65.4308 75.0313 63.7052 75.7461 61.9059 75.7461H21.2002C19.4009 75.7461 17.6753 75.0313 16.403 73.759C15.1307 72.4867 14.4159 70.7611 14.4159 68.9618V21.4718C14.4159 19.6725 15.1307 17.9469 16.403 16.6746C17.6753 15.4023 19.4009 14.6875 21.2002 14.6875H27.9845" stroke="white" stroke-width="4.84592" stroke-linecap="round" stroke-linejoin="round"/>
<path d="M31.3767 48.4737L38.161 55.258L51.7296 41.6895" stroke="white" stroke-width="4.84592" stroke-linecap="round" stroke-linejoin="round"/>
</svg>
