<svg width="66" height="65" viewBox="0 0 66 65" fill="none" xmlns="http://www.w3.org/2000/svg">
<path d="M32.8186 62.5816C49.4118 62.5816 62.8633 49.1301 62.8633 32.5369C62.8633 15.9437 49.4118 2.49219 32.8186 2.49219C16.2254 2.49219 2.77393 15.9437 2.77393 32.5369C2.77393 49.1301 16.2254 62.5816 32.8186 62.5816Z" stroke="white" stroke-width="4.84592" stroke-linecap="round" stroke-linejoin="round"/>
<path d="M32.8194 2.49219C25.1046 10.5927 20.8015 21.3505 20.8015 32.5369C20.8015 43.7233 25.1046 54.4811 32.8194 62.5816C40.5342 54.4811 44.8373 43.7233 44.8373 32.5369C44.8373 21.3505 40.5342 10.5927 32.8194 2.49219Z" stroke="white" stroke-width="4.84592" stroke-linecap="round" stroke-linejoin="round"/>
<path d="M2.77441 32.5371H62.8638" stroke="white" stroke-width="4.84592" stroke-linecap="round" stroke-linejoin="round"/>
<path d="M12.3176 10.9746C12.3176 10.9746 20.0939 14.5093 32.9954 14.5093C45.897 14.5093 53.6733 10.9746 53.6733 10.9746" stroke="white" stroke-width="4.84592"/>
<path d="M53.6724 54.4512C53.6724 54.4512 45.8961 50.9165 32.9945 50.9165C20.093 50.9165 12.3167 54.4512 12.3167 54.4512" stroke="white" stroke-width="4.84592"/>
</svg>
